PathFileType	4	(X/Y/Z)	C:\Users\Basilio\Documents\Thesis Gigler\squatting_fais\c3dfiles\075\SLS_front_pre2\markers_experimental.trc
DataRate	CameraRate	NumFrames	NumMarkers	Units	OrigDataRate	OrigDataStartFrame	OrigNumFrames
200.000000	200.000000	4	61	mm	200.000000	736	1473
Frame#	Time	FHD			LBHD			C7			T10			CLAV			LSHO			LUUPA			LMUPA			LDUPA			LLEP			LMEP			LRAD			LUL			LRFIN			RSHO			RUPA1			RMUPA			RDUPA			RLEP			RMEP			RRAD			RUL			RUFIN			RASI			USACR			LSACR			RSACR			LTHI1			LTHI2			LTHI3			LTHI4			LLFC			LMFC			LTIB1			LTIB2			LTIB3			LTIB4			LLMAL			LMMAL			LHEE			LMT1			LMT2			LMT5			RTHI			RTHI2			RTHI3			RTHI4			RLFC			RMFC			RTIB1			RTIB2			RTIB3			RTIB4			RLMAL			RMMAL			RHEE			RMT1			RMT2			RMT5			RBHD			LASI			
		X1	Y1	Z1	X2	Y2	Z2	X3	Y3	Z3	X4	Y4	Z4	X5	Y5	Z5	X6	Y6	Z6	X7	Y7	Z7	X8	Y8	Z8	X9	Y9	Z9	X10	Y10	Z10	X11	Y11	Z11	X12	Y12	Z12	X13	Y13	Z13	X14	Y14	Z14	X15	Y15	Z15	X16	Y16	Z16	X17	Y17	Z17	X18	Y18	Z18	X19	Y19	Z19	X20	Y20	Z20	X21	Y21	Z21	X22	Y22	Z22	X23	Y23	Z23	X24	Y24	Z24	X25	Y25	Z25	X26	Y26	Z26	X27	Y27	Z27	X28	Y28	Z28	X29	Y29	Z29	X30	Y30	Z30	X31	Y31	Z31	X32	Y32	Z32	X33	Y33	Z33	X34	Y34	Z34	X35	Y35	Z35	X36	Y36	Z36	X37	Y37	Z37	X38	Y38	Z38	X39	Y39	Z39	X40	Y40	Z40	X41	Y41	Z41	X42	Y42	Z42	X43	Y43	Z43	X44	Y44	Z44	X45	Y45	Z45	X46	Y46	Z46	X47	Y47	Z47	X48	Y48	Z48	X49	Y49	Z49	X50	Y50	Z50	X51	Y51	Z51	X52	Y52	Z52	X53	Y53	Z53	X54	Y54	Z54	X55	Y55	Z55	X56	Y56	Z56	X57	Y57	Z57	X58	Y58	Z58	X59	Y59	Z59	X60	Y60	Z60	X61	Y61	Z61	

737	3.68	-234.7400360107422	1350.986572265625	-757.3576049804689	-389.2527770996095	1250.341430664063	-833.4087524414065	-429.6177978515626	1161.8603515625	-779.7749633789065	-593.5171508789064	885.628845214844	-782.707214355469	-310.8155212402344	1061.181762695313	-773.117126464844	-311.1503906250001	1129.45703125	-897.2290649414065	-158.0669403076172	1079.906372070313	-983.8565063476565	-135.2896881103516	1089.494384765625	-939.7619628906252	-89.15111541748048	1070.873046875	-974.5546875000002	-11.07800197601319	1057.275268554688	-956.2437133789065	-30.16767692565919	979.8462524414065	-927.9433593750002	nan	nan	nan	230.1467590332032	1054.161865234375	-858.9127197265627	235.4750213623047	1061.975952148438	-756.2098388671876	-328.1060180664063	1115.845825195313	-642.8397827148439	-194.7423400878907	1057.030395507813	-535.1198730468751	-161.6218719482422	1069.909912109375	-569.0108032226564	-124.9720153808594	1046.088134765625	-526.7967529296876	-54.36457824707033	1039.397827148438	-533.3142700195314	-50.04334259033205	964.5185546875002	-551.6574096679689	163.8674621582032	1048.235717773438	-707.6919555664064	182.4557037353516	1066.906494140625	-633.9014892578126	238.688461303711	1086.115112304688	-732.8335571289064	-479.3706054687501	694.2514648437501	-675.3341674804689	-633.5794677734376	754.7574462890626	-795.835144042969	-644.1928710937501	724.7174682617189	-823.411315917969	-643.5513916015626	722.0509033203126	-768.6738891601565	-383.2626953125001	565.2627563476564	-1020.849914550781	-299.5159606933594	558.7797241210939	-1024.358642578125	-281.9625244140626	598.2073364257814	-999.335632324219	-263.3306579589844	510.3193664550782	-1024.356079101563	-179.720443725586	444.5381774902345	-1019.271606445313	-140.1143035888672	461.9641418457032	-898.2249755859377	-53.47705459594728	394.266082763672	-992.7277832031252	-75.65061187744142	326.4011230468751	-1041.111083984375	-39.56344604492188	346.5982971191407	-1022.45751953125	8.9674129486084	282.0096130371094	-994.0039672851565	40.54594421386719	122.0912857055664	-1014.794860839844	54.06052017211915	153.7928161621094	-933.2203369140627	4.144533634185792	73.5945510864258	-970.2371826171877	197.2395172119141	146.6724700927735	-929.646179199219	205.7538452148438	145.5840911865235	-978.5184326171877	184.1166229248047	103.1435546875	-1025.052978515625	-426.2823181152345	537.5385131835939	-613.5508422851564	-360.2191162109376	544.7985839843751	-612.3508300781251	-348.9583740234376	575.9142456054689	-622.2818603515626	-303.6430358886719	483.352264404297	-617.4288940429689	-198.3358764648438	397.8712768554689	-651.9813842773439	-171.6744384765625	423.8259277343751	-775.8432617187502	-191.5423126220703	279.9936523437501	-754.7297363281251	-270.1954956054688	220.9566345214844	-706.6374511718751	-244.2444763183594	210.7628784179688	-745.3303833007814	-274.1675109863282	187.2283935546875	-788.0489501953127	-392.586639404297	102.8759536743164	-767.7864990234376	-352.4434814453126	135.0613403320313	-844.015808105469	-447.290496826172	91.71902465820314	-834.4710693359377	-241.6771697998047	59.98741912841798	-821.534851074219	-246.6116943359376	57.20010375976564	-778.6977539062502	-289.6745605468751	33.48691177368165	-733.2335815429689	-351.6785888671876	1277.655883789063	-678.0360107421876	-486.5380859375001	706.2135009765626	-921.7181396484377	
738	3.685	-234.4645538330079	1350.403930664063	-756.9044799804689	-389.2059326171876	1249.879272460938	-833.0291748046877	-429.512664794922	1161.209350585938	-779.4531860351565	-593.6682739257814	884.9948730468752	-782.5933837890627	-310.6792602539063	1060.377563476563	-772.9011840820315	-311.2238159179688	1128.8212890625	-897.0491943359377	-158.2238922119141	1079.2998046875	-983.7481689453127	-135.3006286621094	1088.900146484375	-939.6814575195315	-89.17390441894533	1070.356323242188	-974.5131835937502	-11.08561706542969	1056.642211914063	-956.058044433594	-30.21538925170899	979.1276855468752	-928.211120605469	nan	nan	nan	230.2956848144532	1053.5478515625	-859.0093383789065	234.8746643066407	1060.656860351563	-756.4306030273439	-327.9168090820313	1115.162719726563	-642.7265014648439	-194.5445098876954	1056.26416015625	-534.9608154296876	-161.4602661132813	1068.980590820313	-569.0213012695314	-124.8564758300782	1045.130737304688	-526.7945556640626	-54.20227813720705	1038.48193359375	-533.2923583984376	-49.91188049316408	963.568786621094	-551.7747802734376	164.269027709961	1048.017822265625	-707.9177856445314	182.6348724365235	1065.778564453125	-634.1001586914064	238.880599975586	1085.113159179688	-733.1006469726564	-479.3857727050782	693.8527221679689	-675.3038940429689	-633.7629394531251	754.0302124023439	-795.7075805664065	-644.4639892578126	724.1864624023439	-823.2570800781252	-643.6796264648439	721.4956054687501	-768.5074462890627	-383.4727783203126	564.9856567382814	-1020.949462890625	-299.6772155761719	558.4908447265626	-1024.4423828125	-282.0965881347657	597.9102172851564	-999.4253540039065	-264.4616394042969	510.2302551269532	-1024.727172851563	-179.7423248291016	444.3093566894532	-1019.474182128906	-140.183334350586	461.6522521972657	-898.3500976562502	-53.5364112854004	394.0046997070314	-992.8881835937502	-75.77746582031251	326.0415954589844	-1041.2783203125	-39.61468124389649	346.3688354492188	-1022.647155761719	9.04024124145508	281.7526245117188	-994.124206542969	40.52907943725587	121.9993667602539	-1015.094543457031	54.15990829467775	153.5855255126953	-933.5244140625002	4.039560317993165	73.44857025146486	-970.5743408203127	197.3370208740235	146.5242462158203	-930.069519042969	205.7834777832032	145.5083160400391	-978.8612060546877	184.1880645751953	103.0240325927735	-1025.361938476563	-426.2114868164064	537.2460327148439	-613.5619506835939	-360.1578063964844	544.5471191406251	-612.4167480468751	-349.0287170410157	575.6032714843751	-622.4080200195314	-303.5095214843751	483.1512451171876	-617.4870605468751	-198.2258605957032	397.7388305664064	-652.0291748046876	-171.7593231201172	423.7705688476564	-775.8728637695315	-191.4758453369141	279.9512023925782	-754.7837524414064	-270.1336059570313	220.8524017333985	-706.7011718750001	-244.2242584228516	210.755844116211	-745.3347167968751	-274.1111450195313	187.2799224853516	-788.068054199219	-392.5751342773439	102.8587799072266	-767.7893676757814	-352.8509826660157	135.248519897461	-844.1116333007815	-447.3203735351564	91.73258209228517	-834.3746337890627	-241.670883178711	60.00917816162111	-821.5670166015627	-246.6436462402344	57.23775863647462	-778.6939697265627	-289.6597595214844	33.49899291992188	-733.2377929687501	-352.4135742187501	1277.590576171875	-676.7166748046876	-486.7664489746095	705.7150878906251	-921.7761840820315	
739	3.69	-234.4273376464844	1349.61572265625	-756.5782470703126	-389.205291748047	1249.380493164063	-832.9485473632815	-429.4043884277345	1160.7197265625	-779.187194824219	-593.7111206054689	884.5205688476565	-782.4304809570315	-310.4713134765626	1059.817016601563	-772.6766357421877	-311.0326232910157	1128.309936523438	-896.7617187500002	-158.1606597900391	1078.793823242188	-983.713073730469	-135.3514251708985	1088.301147460938	-939.6068115234377	-89.56008148193361	1069.737426757813	-974.324890136719	-11.75282382965088	1055.65576171875	-955.706726074219	-30.30272483825684	978.592224121094	-928.2651977539065	nan	nan	nan	230.4148712158204	1052.608032226563	-859.2298583984377	234.9078521728516	1059.507446289063	-756.5529785156251	-327.8549194335938	1114.272583007813	-642.5383911132814	-194.361312866211	1055.234985351563	-534.9237670898439	-161.3809814453125	1068.075439453125	-569.0227661132814	-124.6730422973633	1044.241577148438	-526.8753051757814	-54.05214309692384	1037.477905273438	-533.4777221679689	-49.85842132568361	962.4138793945315	-552.0842895507814	164.3495025634766	1047.14892578125	-708.1892700195314	182.7293395996094	1064.853515625	-634.4035034179689	238.8100891113282	1084.09326171875	-733.3247070312501	-479.4000244140626	693.3860473632814	-675.2985839843751	-633.9052734375001	753.5375366210939	-795.566833496094	-644.5790405273439	723.6365966796876	-823.1761474609377	-643.7385253906251	721.0108032226564	-768.4282226562502	-383.6289367675782	564.4985961914064	-1020.956848144531	-299.6908264160157	558.1384277343751	-1024.476684570313	-282.2843933105469	597.5697021484376	-999.418151855469	-264.5530395507813	509.9836730957032	-1024.918090820313	-179.7923126220703	444.2578430175782	-1019.588684082031	-140.233139038086	461.3575744628907	-898.4637451171877	-54.02788162231447	393.7755126953126	-993.369323730469	-75.75572204589845	325.8357238769532	-1041.523681640625	-39.63571166992188	346.1213989257813	-1022.877258300781	9.058397293090822	281.5502624511719	-994.3965454101565	40.49360656738282	121.8186874389649	-1015.448791503906	54.22594070434572	153.3744354248047	-933.7833251953127	4.136624336242677	73.29830932617189	-970.8308105468752	197.375473022461	146.342514038086	-930.4644165039065	205.8316040039063	145.4093170166016	-979.1809692382815	184.1532592773438	102.8464660644532	-1025.572021484375	-426.1789550781251	536.8850097656251	-613.6686401367189	-360.1679077148438	544.2868652343751	-612.5349121093751	-349.0725402832032	575.3346557617189	-622.5632324218751	-303.3299865722657	482.9715576171876	-617.5452880859376	-198.0606384277344	397.6521301269532	-652.0643920898439	-171.8069458007813	423.550994873047	-775.8975219726565	-191.3845520019532	279.9248046875001	-754.8475952148439	-270.0464782714844	220.9080963134766	-706.6452026367189	-244.1292266845704	210.7220916748047	-745.4009399414064	-274.1026000976563	187.1746978759766	-787.8542480468752	-392.5740966796876	102.8673400878907	-767.7553710937501	-352.8045349121094	135.2369995117188	-844.079040527344	-447.3076171875001	91.73287200927736	-834.3465576171877	-241.6769104003907	59.9972381591797	-821.5549316406252	-246.5995025634766	57.2230911254883	-778.7571411132815	-289.6557617187501	33.50124740600587	-733.2336425781251	-352.0810852050782	1277.441528320313	-676.2391967773439	-486.8663330078126	705.2608642578126	-921.7639770507815	
740	3.695	-234.4225769042969	1348.87353515625	-756.4514160156251	-389.0917053222657	1248.466552734375	-832.6135864257815	-429.3636474609376	1160.07958984375	-778.9820556640627	-593.8364257812501	883.9439086914065	-782.299499511719	-310.4406433105469	1059.141967773438	-772.6597900390627	-310.9431152343751	1127.824584960938	-896.5520629882815	-158.1513824462891	1078.2412109375	-983.6667480468752	-135.3810424804688	1087.647705078125	-939.5078125000002	-89.50707244873048	1069.16064453125	-974.283630371094	-11.7370138168335	1055.042114257813	-955.7353515625002	-30.24691390991212	978.0122070312502	-928.1259765625002	nan	nan	nan	229.9973602294922	1051.407836914063	-859.6118164062502	235.067611694336	1058.318237304688	-756.7236938476564	-327.5615844726563	1113.5859375	-642.2542114257814	-194.1369018554688	1054.3671875	-534.8984375000001	-161.1610565185547	1067.293334960938	-568.9723510742189	-124.4216690063477	1043.291625976563	-526.8919067382814	-53.91845321655275	1036.391357421875	-533.4981689453126	-49.60698699951173	961.5537109375002	-552.1311035156251	164.0634765625	1045.249633789063	-708.2525024414064	182.8986358642578	1063.928588867188	-634.5193481445314	238.958969116211	1083.068969726563	-733.5342407226564	-479.5064392089845	692.7061157226564	-675.3552246093751	-634.0155029296876	753.0824584960939	-795.465759277344	-644.7512207031251	723.0284423828126	-822.9622802734377	-643.9100952148439	720.3840942382814	-768.288757324219	-383.8792724609376	564.1096801757814	-1021.036376953125	-299.8061218261719	557.7890014648439	-1024.50341796875	-282.4762573242188	597.1988525390626	-999.436462402344	-264.6618957519532	509.6377258300782	-1024.94970703125	-179.7747192382813	444.1073608398439	-1019.698120117188	-140.2560119628907	461.0910034179689	-898.624694824219	-53.59799194335939	393.4476318359376	-993.2080688476565	-75.77587127685548	325.6572265625001	-1041.668212890625	-39.7229347229004	345.8955688476563	-1023.097412109375	8.935566902160646	281.3872680664063	-994.716247558594	40.55822372436524	121.7059936523438	-1015.661682128906	54.27937698364259	153.2123413085938	-934.103454589844	4.353057861328126	73.04042053222658	-971.2420654296877	197.4074096679688	146.2002868652344	-930.7835083007815	205.9315948486329	145.2657623291016	-979.4573364257815	184.2029113769532	102.7164764404297	-1025.896484375	-426.2026672363282	536.5221557617189	-613.6960449218751	-360.2055053710938	543.9390258789064	-612.5450439453126	-349.0244750976563	575.0375976562501	-622.6797485351564	-303.2279968261719	482.7582092285157	-617.5656738281251	-197.8804779052735	397.5398864746095	-652.0916137695314	-171.6763763427735	423.4691162109376	-776.006042480469	-190.9819641113282	279.7498168945313	-754.6917114257814	-269.9895324707032	220.834457397461	-706.7601928710939	-244.0960693359376	210.7008056640626	-745.3822021484376	-274.1334228515626	187.2369232177735	-788.1191406250002	-392.5806274414064	102.857406616211	-767.7111206054689	-352.7630310058594	135.2236633300782	-844.0149536132815	-447.2881164550782	91.70218658447267	-834.329040527344	-241.6823730468751	59.98269653320314	-821.5808715820315	-246.6681671142579	57.23169326782228	-778.7474365234377	-289.6686401367188	33.4785385131836	-733.2342529296876	-350.9150695800782	1276.29052734375	-677.0689697265626	-487.1868286132814	704.6124267578126	-921.614929199219	
